<?xml version="1.0" encoding="utf-8" ?>
<!DOCTYPE svg PUBLIC "-//W3C//DTD SVG 1.1//EN" "http://www.w3.org/Graphics/SVG/1.1/DTD/svg11.dtd">
<svg height="639" version="1.1" width="3302" xmlns="http://www.w3.org/2000/svg">
<line fill="#000000" stroke="#000000" stroke-width="1" x1="106" x2="106" y1="127" y2="132"/>
<line fill="#000000" stroke="#000000" stroke-width="1" x1="106" x2="106" y1="137" y2="142"/>
<line fill="#000000" stroke="#000000" stroke-width="1" x1="106" x2="106" y1="147" y2="152"/>
<line fill="#000000" stroke="#000000" stroke-width="1" x1="106" x2="106" y1="157" y2="162"/>
<line fill="#000000" stroke="#000000" stroke-width="1" x1="106" x2="106" y1="167" y2="172"/>
<line fill="#000000" stroke="#000000" stroke-width="1" x1="106" x2="106" y1="177" y2="182"/>
<line fill="#000000" stroke="#000000" stroke-width="1" x1="106" x2="106" y1="187" y2="192"/>
<line fill="#000000" stroke="#000000" stroke-width="1" x1="106" x2="106" y1="197" y2="202"/>
<line fill="#000000" stroke="#000000" stroke-width="1" x1="106" x2="106" y1="207" y2="212"/>
<line fill="#000000" stroke="#000000" stroke-width="1" x1="106" x2="106" y1="217" y2="222"/>
<line fill="#000000" stroke="#000000" stroke-width="1" x1="106" x2="106" y1="227" y2="232"/>
<line fill="#000000" stroke="#000000" stroke-width="1" x1="106" x2="106" y1="237" y2="242"/>
<line fill="#000000" stroke="#000000" stroke-width="1" x1="106" x2="106" y1="247" y2="252"/>
<line fill="#000000" stroke="#000000" stroke-width="1" x1="106" x2="106" y1="257" y2="262"/>
<line fill="#000000" stroke="#000000" stroke-width="1" x1="106" x2="106" y1="267" y2="272"/>
<line fill="#000000" stroke="#000000" stroke-width="1" x1="106" x2="106" y1="277" y2="282"/>
<line fill="#000000" stroke="#000000" stroke-width="1" x1="106" x2="106" y1="287" y2="292"/>
<line fill="#000000" stroke="#000000" stroke-width="1" x1="106" x2="106" y1="297" y2="302"/>
<line fill="#000000" stroke="#000000" stroke-width="1" x1="106" x2="106" y1="307" y2="312"/>
<line fill="#000000" stroke="#000000" stroke-width="1" x1="106" x2="106" y1="317" y2="322"/>
<line fill="#000000" stroke="#000000" stroke-width="1" x1="106" x2="106" y1="327" y2="332"/>
<line fill="#000000" stroke="#000000" stroke-width="1" x1="106" x2="106" y1="337" y2="342"/>
<line fill="#000000" stroke="#000000" stroke-width="1" x1="106" x2="106" y1="347" y2="352"/>
<line fill="#000000" stroke="#000000" stroke-width="1" x1="106" x2="106" y1="357" y2="362"/>
<line fill="#000000" stroke="#000000" stroke-width="1" x1="106" x2="106" y1="367" y2="372"/>
<line fill="#000000" stroke="#000000" stroke-width="1" x1="106" x2="106" y1="377" y2="382"/>
<line fill="#000000" stroke="#000000" stroke-width="1" x1="106" x2="106" y1="387" y2="392"/>
<line fill="#000000" stroke="#000000" stroke-width="1" x1="106" x2="106" y1="397" y2="402"/>
<line fill="#000000" stroke="#000000" stroke-width="1" x1="106" x2="106" y1="407" y2="412"/>
<line fill="#000000" stroke="#000000" stroke-width="1" x1="106" x2="106" y1="417" y2="422"/>
<line fill="#000000" stroke="#000000" stroke-width="1" x1="106" x2="106" y1="427" y2="432"/>
<line fill="#000000" stroke="#000000" stroke-width="1" x1="106" x2="106" y1="437" y2="442"/>
<line fill="#000000" stroke="#000000" stroke-width="1" x1="106" x2="106" y1="447" y2="452"/>
<line fill="#000000" stroke="#000000" stroke-width="1" x1="106" x2="106" y1="457" y2="462"/>
<line fill="#000000" stroke="#000000" stroke-width="1" x1="106" x2="106" y1="467" y2="472"/>
<line fill="#000000" stroke="#000000" stroke-width="1" x1="106" x2="106" y1="477" y2="482"/>
<line fill="#000000" stroke="#000000" stroke-width="1" x1="106" x2="106" y1="487" y2="492"/>
<line fill="#000000" stroke="#000000" stroke-width="1" x1="106" x2="106" y1="497" y2="502"/>
<line fill="#000000" stroke="#000000" stroke-width="1" x1="106" x2="106" y1="507" y2="512"/>
<line fill="#000000" stroke="#000000" stroke-width="1" x1="106" x2="106" y1="517" y2="522"/>
<line fill="#000000" stroke="#000000" stroke-width="1" x1="106" x2="106" y1="527" y2="532"/>
<line fill="#000000" stroke="#000000" stroke-width="1" x1="106" x2="106" y1="537" y2="542"/>
<line fill="#000000" stroke="#000000" stroke-width="1" x1="106" x2="106" y1="547" y2="552"/>
<line fill="#000000" stroke="#000000" stroke-width="1" x1="106" x2="106" y1="557" y2="562"/>
<line fill="#000000" stroke="#000000" stroke-width="1" x1="106" x2="106" y1="567" y2="572"/>
<line fill="#000000" stroke="#000000" stroke-width="1" x1="106" x2="106" y1="577" y2="582"/>
<line fill="#000000" stroke="#000000" stroke-width="1" x1="106" x2="106" y1="587" y2="592"/>
<line fill="#000000" stroke="#000000" stroke-width="1" x1="106" x2="106" y1="597" y2="602"/>
<line fill="#000000" stroke="#000000" stroke-width="1" x1="106" x2="106" y1="607" y2="612"/>
<line fill="#000000" stroke="#000000" stroke-width="1" x1="106" x2="106" y1="617" y2="622"/>
<rect fill="#ffffff" height="496" stroke="#ffffff" stroke-width="1" width="20" x="96" y="127"/>
<rect fill="none" height="496" stroke="#000000" stroke-width="1" width="20" x="96" y="127"/>
<rect fill="#ffffff" height="50" stroke="#ffffff" stroke-width="1" width="185" x="14" y="78"/>
<rect fill="none" height="50" stroke="#000000" stroke-width="1" width="185" x="14" y="78"/>
<text font-family="Lucida Grande" font-size="13" x="18" y="92">
/MB command line interface</text>
<line fill="#000000" stroke="#000000" stroke-width="1" x1="537" x2="537" y1="127" y2="132"/>
<line fill="#000000" stroke="#000000" stroke-width="1" x1="537" x2="537" y1="137" y2="142"/>
<line fill="#000000" stroke="#000000" stroke-width="1" x1="537" x2="537" y1="147" y2="152"/>
<line fill="#000000" stroke="#000000" stroke-width="1" x1="537" x2="537" y1="157" y2="162"/>
<line fill="#000000" stroke="#000000" stroke-width="1" x1="537" x2="537" y1="167" y2="172"/>
<line fill="#000000" stroke="#000000" stroke-width="1" x1="537" x2="537" y1="177" y2="182"/>
<line fill="#000000" stroke="#000000" stroke-width="1" x1="537" x2="537" y1="187" y2="192"/>
<line fill="#000000" stroke="#000000" stroke-width="1" x1="537" x2="537" y1="197" y2="202"/>
<line fill="#000000" stroke="#000000" stroke-width="1" x1="537" x2="537" y1="207" y2="212"/>
<line fill="#000000" stroke="#000000" stroke-width="1" x1="537" x2="537" y1="217" y2="222"/>
<line fill="#000000" stroke="#000000" stroke-width="1" x1="537" x2="537" y1="227" y2="232"/>
<line fill="#000000" stroke="#000000" stroke-width="1" x1="537" x2="537" y1="237" y2="242"/>
<line fill="#000000" stroke="#000000" stroke-width="1" x1="537" x2="537" y1="247" y2="252"/>
<line fill="#000000" stroke="#000000" stroke-width="1" x1="537" x2="537" y1="257" y2="262"/>
<line fill="#000000" stroke="#000000" stroke-width="1" x1="537" x2="537" y1="267" y2="272"/>
<line fill="#000000" stroke="#000000" stroke-width="1" x1="537" x2="537" y1="277" y2="282"/>
<line fill="#000000" stroke="#000000" stroke-width="1" x1="537" x2="537" y1="287" y2="292"/>
<line fill="#000000" stroke="#000000" stroke-width="1" x1="537" x2="537" y1="297" y2="302"/>
<line fill="#000000" stroke="#000000" stroke-width="1" x1="537" x2="537" y1="307" y2="312"/>
<line fill="#000000" stroke="#000000" stroke-width="1" x1="537" x2="537" y1="317" y2="322"/>
<line fill="#000000" stroke="#000000" stroke-width="1" x1="537" x2="537" y1="327" y2="332"/>
<line fill="#000000" stroke="#000000" stroke-width="1" x1="537" x2="537" y1="337" y2="342"/>
<line fill="#000000" stroke="#000000" stroke-width="1" x1="537" x2="537" y1="347" y2="352"/>
<line fill="#000000" stroke="#000000" stroke-width="1" x1="537" x2="537" y1="357" y2="362"/>
<line fill="#000000" stroke="#000000" stroke-width="1" x1="537" x2="537" y1="367" y2="372"/>
<line fill="#000000" stroke="#000000" stroke-width="1" x1="537" x2="537" y1="377" y2="382"/>
<line fill="#000000" stroke="#000000" stroke-width="1" x1="537" x2="537" y1="387" y2="392"/>
<line fill="#000000" stroke="#000000" stroke-width="1" x1="537" x2="537" y1="397" y2="402"/>
<line fill="#000000" stroke="#000000" stroke-width="1" x1="537" x2="537" y1="407" y2="412"/>
<line fill="#000000" stroke="#000000" stroke-width="1" x1="537" x2="537" y1="417" y2="422"/>
<line fill="#000000" stroke="#000000" stroke-width="1" x1="537" x2="537" y1="427" y2="432"/>
<line fill="#000000" stroke="#000000" stroke-width="1" x1="537" x2="537" y1="437" y2="442"/>
<line fill="#000000" stroke="#000000" stroke-width="1" x1="537" x2="537" y1="447" y2="452"/>
<line fill="#000000" stroke="#000000" stroke-width="1" x1="537" x2="537" y1="457" y2="462"/>
<line fill="#000000" stroke="#000000" stroke-width="1" x1="537" x2="537" y1="467" y2="472"/>
<line fill="#000000" stroke="#000000" stroke-width="1" x1="537" x2="537" y1="477" y2="482"/>
<line fill="#000000" stroke="#000000" stroke-width="1" x1="537" x2="537" y1="487" y2="492"/>
<line fill="#000000" stroke="#000000" stroke-width="1" x1="537" x2="537" y1="497" y2="502"/>
<line fill="#000000" stroke="#000000" stroke-width="1" x1="537" x2="537" y1="507" y2="512"/>
<line fill="#000000" stroke="#000000" stroke-width="1" x1="537" x2="537" y1="517" y2="522"/>
<line fill="#000000" stroke="#000000" stroke-width="1" x1="537" x2="537" y1="527" y2="532"/>
<line fill="#000000" stroke="#000000" stroke-width="1" x1="537" x2="537" y1="537" y2="542"/>
<line fill="#000000" stroke="#000000" stroke-width="1" x1="537" x2="537" y1="547" y2="552"/>
<line fill="#000000" stroke="#000000" stroke-width="1" x1="537" x2="537" y1="557" y2="562"/>
<line fill="#000000" stroke="#000000" stroke-width="1" x1="537" x2="537" y1="567" y2="572"/>
<line fill="#000000" stroke="#000000" stroke-width="1" x1="537" x2="537" y1="577" y2="582"/>
<line fill="#000000" stroke="#000000" stroke-width="1" x1="537" x2="537" y1="587" y2="592"/>
<line fill="#000000" stroke="#000000" stroke-width="1" x1="537" x2="537" y1="597" y2="602"/>
<line fill="#000000" stroke="#000000" stroke-width="1" x1="537" x2="537" y1="607" y2="612"/>
<line fill="#000000" stroke="#000000" stroke-width="1" x1="537" x2="537" y1="617" y2="621"/>
<rect fill="#ffffff" height="494" stroke="#ffffff" stroke-width="1" width="20" x="527" y="127"/>
<rect fill="none" height="494" stroke="#000000" stroke-width="1" width="20" x="527" y="127"/>
<rect fill="#ffffff" height="50" stroke="#ffffff" stroke-width="1" width="150" x="462" y="78"/>
<rect fill="none" height="50" stroke="#000000" stroke-width="1" width="150" x="462" y="78"/>
<text font-family="Lucida Grande" font-size="13" x="494" y="92">
/Scalar Model</text>
<line fill="#000000" stroke="#000000" stroke-width="1" x1="761" x2="761" y1="127" y2="132"/>
<line fill="#000000" stroke="#000000" stroke-width="1" x1="761" x2="761" y1="137" y2="142"/>
<line fill="#000000" stroke="#000000" stroke-width="1" x1="761" x2="761" y1="147" y2="152"/>
<line fill="#000000" stroke="#000000" stroke-width="1" x1="761" x2="761" y1="157" y2="162"/>
<line fill="#000000" stroke="#000000" stroke-width="1" x1="761" x2="761" y1="167" y2="172"/>
<line fill="#000000" stroke="#000000" stroke-width="1" x1="761" x2="761" y1="177" y2="182"/>
<line fill="#000000" stroke="#000000" stroke-width="1" x1="761" x2="761" y1="187" y2="192"/>
<line fill="#000000" stroke="#000000" stroke-width="1" x1="761" x2="761" y1="197" y2="202"/>
<line fill="#000000" stroke="#000000" stroke-width="1" x1="761" x2="761" y1="207" y2="212"/>
<line fill="#000000" stroke="#000000" stroke-width="1" x1="761" x2="761" y1="217" y2="222"/>
<line fill="#000000" stroke="#000000" stroke-width="1" x1="761" x2="761" y1="227" y2="232"/>
<line fill="#000000" stroke="#000000" stroke-width="1" x1="761" x2="761" y1="237" y2="242"/>
<line fill="#000000" stroke="#000000" stroke-width="1" x1="761" x2="761" y1="247" y2="252"/>
<line fill="#000000" stroke="#000000" stroke-width="1" x1="761" x2="761" y1="257" y2="262"/>
<line fill="#000000" stroke="#000000" stroke-width="1" x1="761" x2="761" y1="267" y2="272"/>
<line fill="#000000" stroke="#000000" stroke-width="1" x1="761" x2="761" y1="277" y2="282"/>
<line fill="#000000" stroke="#000000" stroke-width="1" x1="761" x2="761" y1="287" y2="292"/>
<line fill="#000000" stroke="#000000" stroke-width="1" x1="761" x2="761" y1="297" y2="302"/>
<line fill="#000000" stroke="#000000" stroke-width="1" x1="761" x2="761" y1="307" y2="312"/>
<line fill="#000000" stroke="#000000" stroke-width="1" x1="761" x2="761" y1="317" y2="322"/>
<line fill="#000000" stroke="#000000" stroke-width="1" x1="761" x2="761" y1="327" y2="332"/>
<line fill="#000000" stroke="#000000" stroke-width="1" x1="761" x2="761" y1="337" y2="342"/>
<line fill="#000000" stroke="#000000" stroke-width="1" x1="761" x2="761" y1="347" y2="352"/>
<line fill="#000000" stroke="#000000" stroke-width="1" x1="761" x2="761" y1="357" y2="362"/>
<line fill="#000000" stroke="#000000" stroke-width="1" x1="761" x2="761" y1="367" y2="372"/>
<line fill="#000000" stroke="#000000" stroke-width="1" x1="761" x2="761" y1="377" y2="382"/>
<line fill="#000000" stroke="#000000" stroke-width="1" x1="761" x2="761" y1="387" y2="392"/>
<line fill="#000000" stroke="#000000" stroke-width="1" x1="761" x2="761" y1="397" y2="402"/>
<line fill="#000000" stroke="#000000" stroke-width="1" x1="761" x2="761" y1="407" y2="412"/>
<line fill="#000000" stroke="#000000" stroke-width="1" x1="761" x2="761" y1="417" y2="422"/>
<line fill="#000000" stroke="#000000" stroke-width="1" x1="761" x2="761" y1="427" y2="432"/>
<line fill="#000000" stroke="#000000" stroke-width="1" x1="761" x2="761" y1="437" y2="442"/>
<line fill="#000000" stroke="#000000" stroke-width="1" x1="761" x2="761" y1="447" y2="452"/>
<line fill="#000000" stroke="#000000" stroke-width="1" x1="761" x2="761" y1="457" y2="462"/>
<line fill="#000000" stroke="#000000" stroke-width="1" x1="761" x2="761" y1="467" y2="472"/>
<line fill="#000000" stroke="#000000" stroke-width="1" x1="761" x2="761" y1="477" y2="482"/>
<line fill="#000000" stroke="#000000" stroke-width="1" x1="761" x2="761" y1="487" y2="492"/>
<line fill="#000000" stroke="#000000" stroke-width="1" x1="761" x2="761" y1="497" y2="502"/>
<line fill="#000000" stroke="#000000" stroke-width="1" x1="761" x2="761" y1="507" y2="512"/>
<line fill="#000000" stroke="#000000" stroke-width="1" x1="761" x2="761" y1="517" y2="522"/>
<line fill="#000000" stroke="#000000" stroke-width="1" x1="761" x2="761" y1="527" y2="532"/>
<line fill="#000000" stroke="#000000" stroke-width="1" x1="761" x2="761" y1="537" y2="542"/>
<line fill="#000000" stroke="#000000" stroke-width="1" x1="761" x2="761" y1="547" y2="552"/>
<line fill="#000000" stroke="#000000" stroke-width="1" x1="761" x2="761" y1="557" y2="562"/>
<line fill="#000000" stroke="#000000" stroke-width="1" x1="761" x2="761" y1="567" y2="572"/>
<line fill="#000000" stroke="#000000" stroke-width="1" x1="761" x2="761" y1="577" y2="582"/>
<line fill="#000000" stroke="#000000" stroke-width="1" x1="761" x2="761" y1="587" y2="592"/>
<line fill="#000000" stroke="#000000" stroke-width="1" x1="761" x2="761" y1="597" y2="602"/>
<line fill="#000000" stroke="#000000" stroke-width="1" x1="761" x2="761" y1="607" y2="612"/>
<line fill="#000000" stroke="#000000" stroke-width="1" x1="761" x2="761" y1="617" y2="619"/>
<rect fill="#ffffff" height="492" stroke="#ffffff" stroke-width="1" width="20" x="751" y="127"/>
<rect fill="none" height="492" stroke="#000000" stroke-width="1" width="20" x="751" y="127"/>
<rect fill="#ffffff" height="50" stroke="#ffffff" stroke-width="1" width="150" x="686" y="78"/>
<rect fill="none" height="50" stroke="#000000" stroke-width="1" width="150" x="686" y="78"/>
<text font-family="Lucida Grande" font-size="13" x="734" y="92">
/Toucan</text>
<line fill="#000000" stroke="#000000" stroke-width="1" x1="977" x2="977" y1="127" y2="132"/>
<line fill="#000000" stroke="#000000" stroke-width="1" x1="977" x2="977" y1="137" y2="142"/>
<line fill="#000000" stroke="#000000" stroke-width="1" x1="977" x2="977" y1="147" y2="152"/>
<line fill="#000000" stroke="#000000" stroke-width="1" x1="977" x2="977" y1="157" y2="162"/>
<line fill="#000000" stroke="#000000" stroke-width="1" x1="977" x2="977" y1="167" y2="172"/>
<line fill="#000000" stroke="#000000" stroke-width="1" x1="977" x2="977" y1="177" y2="182"/>
<line fill="#000000" stroke="#000000" stroke-width="1" x1="977" x2="977" y1="187" y2="192"/>
<line fill="#000000" stroke="#000000" stroke-width="1" x1="977" x2="977" y1="197" y2="202"/>
<line fill="#000000" stroke="#000000" stroke-width="1" x1="977" x2="977" y1="207" y2="212"/>
<line fill="#000000" stroke="#000000" stroke-width="1" x1="977" x2="977" y1="217" y2="222"/>
<line fill="#000000" stroke="#000000" stroke-width="1" x1="977" x2="977" y1="227" y2="232"/>
<line fill="#000000" stroke="#000000" stroke-width="1" x1="977" x2="977" y1="237" y2="242"/>
<line fill="#000000" stroke="#000000" stroke-width="1" x1="977" x2="977" y1="247" y2="252"/>
<line fill="#000000" stroke="#000000" stroke-width="1" x1="977" x2="977" y1="257" y2="262"/>
<line fill="#000000" stroke="#000000" stroke-width="1" x1="977" x2="977" y1="267" y2="272"/>
<line fill="#000000" stroke="#000000" stroke-width="1" x1="977" x2="977" y1="277" y2="282"/>
<line fill="#000000" stroke="#000000" stroke-width="1" x1="977" x2="977" y1="287" y2="292"/>
<line fill="#000000" stroke="#000000" stroke-width="1" x1="977" x2="977" y1="297" y2="302"/>
<line fill="#000000" stroke="#000000" stroke-width="1" x1="977" x2="977" y1="307" y2="312"/>
<line fill="#000000" stroke="#000000" stroke-width="1" x1="977" x2="977" y1="317" y2="322"/>
<line fill="#000000" stroke="#000000" stroke-width="1" x1="977" x2="977" y1="327" y2="332"/>
<line fill="#000000" stroke="#000000" stroke-width="1" x1="977" x2="977" y1="337" y2="342"/>
<line fill="#000000" stroke="#000000" stroke-width="1" x1="977" x2="977" y1="347" y2="352"/>
<line fill="#000000" stroke="#000000" stroke-width="1" x1="977" x2="977" y1="357" y2="362"/>
<line fill="#000000" stroke="#000000" stroke-width="1" x1="977" x2="977" y1="367" y2="372"/>
<line fill="#000000" stroke="#000000" stroke-width="1" x1="977" x2="977" y1="377" y2="382"/>
<line fill="#000000" stroke="#000000" stroke-width="1" x1="977" x2="977" y1="387" y2="392"/>
<line fill="#000000" stroke="#000000" stroke-width="1" x1="977" x2="977" y1="397" y2="402"/>
<line fill="#000000" stroke="#000000" stroke-width="1" x1="977" x2="977" y1="407" y2="412"/>
<line fill="#000000" stroke="#000000" stroke-width="1" x1="977" x2="977" y1="417" y2="422"/>
<line fill="#000000" stroke="#000000" stroke-width="1" x1="977" x2="977" y1="427" y2="432"/>
<line fill="#000000" stroke="#000000" stroke-width="1" x1="977" x2="977" y1="437" y2="442"/>
<line fill="#000000" stroke="#000000" stroke-width="1" x1="977" x2="977" y1="447" y2="452"/>
<line fill="#000000" stroke="#000000" stroke-width="1" x1="977" x2="977" y1="457" y2="462"/>
<line fill="#000000" stroke="#000000" stroke-width="1" x1="977" x2="977" y1="467" y2="472"/>
<line fill="#000000" stroke="#000000" stroke-width="1" x1="977" x2="977" y1="477" y2="482"/>
<line fill="#000000" stroke="#000000" stroke-width="1" x1="977" x2="977" y1="487" y2="492"/>
<line fill="#000000" stroke="#000000" stroke-width="1" x1="977" x2="977" y1="497" y2="502"/>
<line fill="#000000" stroke="#000000" stroke-width="1" x1="977" x2="977" y1="507" y2="512"/>
<line fill="#000000" stroke="#000000" stroke-width="1" x1="977" x2="977" y1="517" y2="522"/>
<line fill="#000000" stroke="#000000" stroke-width="1" x1="977" x2="977" y1="527" y2="532"/>
<line fill="#000000" stroke="#000000" stroke-width="1" x1="977" x2="977" y1="537" y2="542"/>
<line fill="#000000" stroke="#000000" stroke-width="1" x1="977" x2="977" y1="547" y2="552"/>
<line fill="#000000" stroke="#000000" stroke-width="1" x1="977" x2="977" y1="557" y2="562"/>
<line fill="#000000" stroke="#000000" stroke-width="1" x1="977" x2="977" y1="567" y2="572"/>
<line fill="#000000" stroke="#000000" stroke-width="1" x1="977" x2="977" y1="577" y2="582"/>
<line fill="#000000" stroke="#000000" stroke-width="1" x1="977" x2="977" y1="587" y2="592"/>
<line fill="#000000" stroke="#000000" stroke-width="1" x1="977" x2="977" y1="597" y2="602"/>
<line fill="#000000" stroke="#000000" stroke-width="1" x1="977" x2="977" y1="607" y2="612"/>
<line fill="#000000" stroke="#000000" stroke-width="1" x1="977" x2="977" y1="617" y2="622"/>
<rect fill="#ffffff" height="40" stroke="#ffffff" stroke-width="1" width="20" x="967" y="286"/>
<rect fill="none" height="40" stroke="#000000" stroke-width="1" width="20" x="967" y="286"/>
<rect fill="#ffffff" height="50" stroke="#ffffff" stroke-width="1" width="150" x="902" y="78"/>
<rect fill="none" height="50" stroke="#000000" stroke-width="1" width="150" x="902" y="78"/>
<text font-family="Lucida Grande" font-size="13" x="918" y="92">
/Metabase Internal</text>
<polyline fill="none" points="547,262 751,262" stroke="#000000" stroke-width="1"/>
<line fill="#000000" stroke="#000000" stroke-width="1" x1="739" x2="751" y1="269" y2="262"/>
<line fill="#000000" stroke="#000000" stroke-width="1" x1="739" x2="751" y1="255" y2="262"/>
<text font-family="Lucida Grande" font-size="13" x="568" y="281">
hydrate model with data</text>
<line fill="#000000" stroke="#000000" stroke-width="1" x1="337" x2="337" y1="127" y2="132"/>
<line fill="#000000" stroke="#000000" stroke-width="1" x1="337" x2="337" y1="137" y2="142"/>
<line fill="#000000" stroke="#000000" stroke-width="1" x1="337" x2="337" y1="147" y2="152"/>
<line fill="#000000" stroke="#000000" stroke-width="1" x1="337" x2="337" y1="157" y2="162"/>
<line fill="#000000" stroke="#000000" stroke-width="1" x1="337" x2="337" y1="167" y2="172"/>
<line fill="#000000" stroke="#000000" stroke-width="1" x1="337" x2="337" y1="177" y2="182"/>
<line fill="#000000" stroke="#000000" stroke-width="1" x1="337" x2="337" y1="187" y2="192"/>
<line fill="#000000" stroke="#000000" stroke-width="1" x1="337" x2="337" y1="197" y2="202"/>
<line fill="#000000" stroke="#000000" stroke-width="1" x1="337" x2="337" y1="207" y2="212"/>
<line fill="#000000" stroke="#000000" stroke-width="1" x1="337" x2="337" y1="217" y2="222"/>
<line fill="#000000" stroke="#000000" stroke-width="1" x1="337" x2="337" y1="227" y2="232"/>
<line fill="#000000" stroke="#000000" stroke-width="1" x1="337" x2="337" y1="237" y2="242"/>
<line fill="#000000" stroke="#000000" stroke-width="1" x1="337" x2="337" y1="247" y2="252"/>
<line fill="#000000" stroke="#000000" stroke-width="1" x1="337" x2="337" y1="257" y2="262"/>
<line fill="#000000" stroke="#000000" stroke-width="1" x1="337" x2="337" y1="267" y2="272"/>
<line fill="#000000" stroke="#000000" stroke-width="1" x1="337" x2="337" y1="277" y2="282"/>
<line fill="#000000" stroke="#000000" stroke-width="1" x1="337" x2="337" y1="287" y2="292"/>
<line fill="#000000" stroke="#000000" stroke-width="1" x1="337" x2="337" y1="297" y2="302"/>
<line fill="#000000" stroke="#000000" stroke-width="1" x1="337" x2="337" y1="307" y2="312"/>
<line fill="#000000" stroke="#000000" stroke-width="1" x1="337" x2="337" y1="317" y2="322"/>
<line fill="#000000" stroke="#000000" stroke-width="1" x1="337" x2="337" y1="327" y2="332"/>
<line fill="#000000" stroke="#000000" stroke-width="1" x1="337" x2="337" y1="337" y2="342"/>
<line fill="#000000" stroke="#000000" stroke-width="1" x1="337" x2="337" y1="347" y2="352"/>
<line fill="#000000" stroke="#000000" stroke-width="1" x1="337" x2="337" y1="357" y2="362"/>
<line fill="#000000" stroke="#000000" stroke-width="1" x1="337" x2="337" y1="367" y2="372"/>
<line fill="#000000" stroke="#000000" stroke-width="1" x1="337" x2="337" y1="377" y2="382"/>
<line fill="#000000" stroke="#000000" stroke-width="1" x1="337" x2="337" y1="387" y2="392"/>
<line fill="#000000" stroke="#000000" stroke-width="1" x1="337" x2="337" y1="397" y2="402"/>
<line fill="#000000" stroke="#000000" stroke-width="1" x1="337" x2="337" y1="407" y2="412"/>
<line fill="#000000" stroke="#000000" stroke-width="1" x1="337" x2="337" y1="417" y2="422"/>
<line fill="#000000" stroke="#000000" stroke-width="1" x1="337" x2="337" y1="427" y2="432"/>
<line fill="#000000" stroke="#000000" stroke-width="1" x1="337" x2="337" y1="437" y2="442"/>
<line fill="#000000" stroke="#000000" stroke-width="1" x1="337" x2="337" y1="447" y2="452"/>
<line fill="#000000" stroke="#000000" stroke-width="1" x1="337" x2="337" y1="457" y2="462"/>
<line fill="#000000" stroke="#000000" stroke-width="1" x1="337" x2="337" y1="467" y2="472"/>
<line fill="#000000" stroke="#000000" stroke-width="1" x1="337" x2="337" y1="477" y2="482"/>
<line fill="#000000" stroke="#000000" stroke-width="1" x1="337" x2="337" y1="487" y2="492"/>
<line fill="#000000" stroke="#000000" stroke-width="1" x1="337" x2="337" y1="497" y2="502"/>
<line fill="#000000" stroke="#000000" stroke-width="1" x1="337" x2="337" y1="507" y2="512"/>
<line fill="#000000" stroke="#000000" stroke-width="1" x1="337" x2="337" y1="517" y2="522"/>
<line fill="#000000" stroke="#000000" stroke-width="1" x1="337" x2="337" y1="527" y2="532"/>
<line fill="#000000" stroke="#000000" stroke-width="1" x1="337" x2="337" y1="537" y2="542"/>
<line fill="#000000" stroke="#000000" stroke-width="1" x1="337" x2="337" y1="547" y2="552"/>
<line fill="#000000" stroke="#000000" stroke-width="1" x1="337" x2="337" y1="557" y2="562"/>
<line fill="#000000" stroke="#000000" stroke-width="1" x1="337" x2="337" y1="567" y2="572"/>
<line fill="#000000" stroke="#000000" stroke-width="1" x1="337" x2="337" y1="577" y2="582"/>
<line fill="#000000" stroke="#000000" stroke-width="1" x1="337" x2="337" y1="587" y2="592"/>
<line fill="#000000" stroke="#000000" stroke-width="1" x1="337" x2="337" y1="597" y2="602"/>
<line fill="#000000" stroke="#000000" stroke-width="1" x1="337" x2="337" y1="607" y2="612"/>
<line fill="#000000" stroke="#000000" stroke-width="1" x1="337" x2="337" y1="617" y2="619"/>
<rect fill="#ffffff" height="492" stroke="#ffffff" stroke-width="1" width="20" x="327" y="127"/>
<rect fill="none" height="492" stroke="#000000" stroke-width="1" width="20" x="327" y="127"/>
<rect fill="#ffffff" height="50" stroke="#ffffff" stroke-width="1" width="150" x="262" y="78"/>
<rect fill="none" height="50" stroke="#000000" stroke-width="1" width="150" x="262" y="78"/>
<text font-family="Lucida Grande" font-size="13" x="268" y="92">
/Scalar CMD Interface</text>
<polyline fill="none" points="347,230 527,230" stroke="#000000" stroke-width="1"/>
<line fill="#000000" stroke="#000000" stroke-width="1" x1="515" x2="527" y1="237" y2="230"/>
<line fill="#000000" stroke="#000000" stroke-width="1" x1="515" x2="527" y1="223" y2="230"/>
<text font-family="Lucida Grande" font-size="13" x="355" y="246">
set-scalar! &lt;key&gt; &lt;value&gt;</text>
<polyline fill="none" points="751,198 347,198" stroke="#000000" stroke-width="1"/>
<line fill="#000000" stroke="#000000" stroke-width="1" x1="359" x2="347" y1="191" y2="198"/>
<line fill="#000000" stroke="#000000" stroke-width="1" x1="359" x2="347" y1="205" y2="198"/>
<polyline fill="none" points="347,166 751,166" stroke="#000000" stroke-width="1"/>
<line fill="#000000" stroke="#000000" stroke-width="1" x1="739" x2="751" y1="173" y2="166"/>
<line fill="#000000" stroke="#000000" stroke-width="1" x1="739" x2="751" y1="159" y2="166"/>
<text font-family="Lucida Grande" font-size="13" x="487" y="182">
Initialize DB Connection</text>
<polyline fill="none" points="771,286 967,286" stroke="#000000" stroke-width="1"/>
<polygon fill="#000000" points="967,286 955,293 955,279" stroke="#000000" stroke-width="1"/>
<polygon fill="none" points="967,286 955,293 955,279" stroke="#000000" stroke-width="1"/>
<text font-family="Lucida Grande" font-size="13" x="790" y="305">
Insert the Hydrated Model</text>
<line fill="#000000" stroke="#000000" stroke-width="1" x1="967" x2="962" y1="326" y2="326"/>
<line fill="#000000" stroke="#000000" stroke-width="1" x1="957" x2="952" y1="326" y2="326"/>
<line fill="#000000" stroke="#000000" stroke-width="1" x1="947" x2="942" y1="326" y2="326"/>
<line fill="#000000" stroke="#000000" stroke-width="1" x1="937" x2="932" y1="326" y2="326"/>
<line fill="#000000" stroke="#000000" stroke-width="1" x1="927" x2="922" y1="326" y2="326"/>
<line fill="#000000" stroke="#000000" stroke-width="1" x1="917" x2="912" y1="326" y2="326"/>
<line fill="#000000" stroke="#000000" stroke-width="1" x1="907" x2="902" y1="326" y2="326"/>
<line fill="#000000" stroke="#000000" stroke-width="1" x1="897" x2="892" y1="326" y2="326"/>
<line fill="#000000" stroke="#000000" stroke-width="1" x1="887" x2="882" y1="326" y2="326"/>
<line fill="#000000" stroke="#000000" stroke-width="1" x1="877" x2="872" y1="326" y2="326"/>
<line fill="#000000" stroke="#000000" stroke-width="1" x1="867" x2="862" y1="326" y2="326"/>
<line fill="#000000" stroke="#000000" stroke-width="1" x1="857" x2="852" y1="326" y2="326"/>
<line fill="#000000" stroke="#000000" stroke-width="1" x1="847" x2="842" y1="326" y2="326"/>
<line fill="#000000" stroke="#000000" stroke-width="1" x1="837" x2="832" y1="326" y2="326"/>
<line fill="#000000" stroke="#000000" stroke-width="1" x1="827" x2="822" y1="326" y2="326"/>
<line fill="#000000" stroke="#000000" stroke-width="1" x1="817" x2="812" y1="326" y2="326"/>
<line fill="#000000" stroke="#000000" stroke-width="1" x1="807" x2="802" y1="326" y2="326"/>
<line fill="#000000" stroke="#000000" stroke-width="1" x1="797" x2="792" y1="326" y2="326"/>
<line fill="#000000" stroke="#000000" stroke-width="1" x1="787" x2="782" y1="326" y2="326"/>
<line fill="#000000" stroke="#000000" stroke-width="1" x1="777" x2="772" y1="326" y2="326"/>
<line fill="#000000" stroke="#000000" stroke-width="1" x1="783" x2="771" y1="319" y2="326"/>
<line fill="#000000" stroke="#000000" stroke-width="1" x1="783" x2="771" y1="333" y2="326"/>
<text font-family="Lucida Grande" font-size="13" x="789" y="346">
Return the model  back to the data-layer</text>
<line fill="#000000" stroke="#000000" stroke-width="1" x1="751" x2="746" y1="358" y2="358"/>
<line fill="#000000" stroke="#000000" stroke-width="1" x1="741" x2="736" y1="358" y2="358"/>
<line fill="#000000" stroke="#000000" stroke-width="1" x1="731" x2="726" y1="358" y2="358"/>
<line fill="#000000" stroke="#000000" stroke-width="1" x1="721" x2="716" y1="358" y2="358"/>
<line fill="#000000" stroke="#000000" stroke-width="1" x1="711" x2="706" y1="358" y2="358"/>
<line fill="#000000" stroke="#000000" stroke-width="1" x1="701" x2="696" y1="358" y2="358"/>
<line fill="#000000" stroke="#000000" stroke-width="1" x1="691" x2="686" y1="358" y2="358"/>
<line fill="#000000" stroke="#000000" stroke-width="1" x1="681" x2="676" y1="358" y2="358"/>
<line fill="#000000" stroke="#000000" stroke-width="1" x1="671" x2="666" y1="358" y2="358"/>
<line fill="#000000" stroke="#000000" stroke-width="1" x1="661" x2="656" y1="358" y2="358"/>
<line fill="#000000" stroke="#000000" stroke-width="1" x1="651" x2="646" y1="358" y2="358"/>
<line fill="#000000" stroke="#000000" stroke-width="1" x1="641" x2="636" y1="358" y2="358"/>
<line fill="#000000" stroke="#000000" stroke-width="1" x1="631" x2="626" y1="358" y2="358"/>
<line fill="#000000" stroke="#000000" stroke-width="1" x1="621" x2="616" y1="358" y2="358"/>
<line fill="#000000" stroke="#000000" stroke-width="1" x1="611" x2="606" y1="358" y2="358"/>
<line fill="#000000" stroke="#000000" stroke-width="1" x1="601" x2="596" y1="358" y2="358"/>
<line fill="#000000" stroke="#000000" stroke-width="1" x1="591" x2="586" y1="358" y2="358"/>
<line fill="#000000" stroke="#000000" stroke-width="1" x1="581" x2="576" y1="358" y2="358"/>
<line fill="#000000" stroke="#000000" stroke-width="1" x1="571" x2="566" y1="358" y2="358"/>
<line fill="#000000" stroke="#000000" stroke-width="1" x1="561" x2="556" y1="358" y2="358"/>
<line fill="#000000" stroke="#000000" stroke-width="1" x1="551" x2="546" y1="358" y2="358"/>
<line fill="#000000" stroke="#000000" stroke-width="1" x1="541" x2="536" y1="358" y2="358"/>
<line fill="#000000" stroke="#000000" stroke-width="1" x1="531" x2="526" y1="358" y2="358"/>
<line fill="#000000" stroke="#000000" stroke-width="1" x1="521" x2="516" y1="358" y2="358"/>
<line fill="#000000" stroke="#000000" stroke-width="1" x1="511" x2="506" y1="358" y2="358"/>
<line fill="#000000" stroke="#000000" stroke-width="1" x1="501" x2="496" y1="358" y2="358"/>
<line fill="#000000" stroke="#000000" stroke-width="1" x1="491" x2="486" y1="358" y2="358"/>
<line fill="#000000" stroke="#000000" stroke-width="1" x1="481" x2="476" y1="358" y2="358"/>
<line fill="#000000" stroke="#000000" stroke-width="1" x1="471" x2="466" y1="358" y2="358"/>
<line fill="#000000" stroke="#000000" stroke-width="1" x1="461" x2="456" y1="358" y2="358"/>
<line fill="#000000" stroke="#000000" stroke-width="1" x1="451" x2="446" y1="358" y2="358"/>
<line fill="#000000" stroke="#000000" stroke-width="1" x1="441" x2="436" y1="358" y2="358"/>
<line fill="#000000" stroke="#000000" stroke-width="1" x1="431" x2="426" y1="358" y2="358"/>
<line fill="#000000" stroke="#000000" stroke-width="1" x1="421" x2="416" y1="358" y2="358"/>
<line fill="#000000" stroke="#000000" stroke-width="1" x1="411" x2="406" y1="358" y2="358"/>
<line fill="#000000" stroke="#000000" stroke-width="1" x1="401" x2="396" y1="358" y2="358"/>
<line fill="#000000" stroke="#000000" stroke-width="1" x1="391" x2="386" y1="358" y2="358"/>
<line fill="#000000" stroke="#000000" stroke-width="1" x1="381" x2="376" y1="358" y2="358"/>
<line fill="#000000" stroke="#000000" stroke-width="1" x1="371" x2="366" y1="358" y2="358"/>
<line fill="#000000" stroke="#000000" stroke-width="1" x1="361" x2="356" y1="358" y2="358"/>
<line fill="#000000" stroke="#000000" stroke-width="1" x1="351" x2="347" y1="358" y2="358"/>
<line fill="#000000" stroke="#000000" stroke-width="1" x1="359" x2="347" y1="351" y2="358"/>
<line fill="#000000" stroke="#000000" stroke-width="1" x1="359" x2="347" y1="365" y2="358"/>
<text font-family="Lucida Grande" font-size="13" x="463" y="380">
Return Populated Diagramn</text>
<polyline fill="none" points="116,142 327,142" stroke="#000000" stroke-width="1"/>
<line fill="#000000" stroke="#000000" stroke-width="1" x1="315" x2="327" y1="149" y2="142"/>
<line fill="#000000" stroke="#000000" stroke-width="1" x1="315" x2="327" y1="135" y2="142"/>
<text font-family="Lucida Grande" font-size="13" x="145" y="160">
Call java -jar metabase.jar</text>
<polygon fill="#ffffff" points="230,14 659,14 669,24 669,72 230,72 230,14" stroke="#ffffff" stroke-width="1"/>
<polyline fill="none" points="230,14 659,14 669,24 669,72 230,72 230,14" stroke="#000000" stroke-width="1"/>
<polygon fill="#b2b2b2" points="659,14 669,24 659,24 659,14" stroke="#b2b2b2" stroke-width="1"/>
<polyline fill="none" points="659,14 669,24 659,24 659,14" stroke="#000000" stroke-width="1"/>
<text font-family="Lucida Grande" font-size="13" x="233" y="30">
example: java -jar ./target/uberjar/metabase.jar set-scalar! jim .77</text>
<line fill="#000000" stroke="#000000" stroke-width="1" x1="230" x2="225" y1="73" y2="73"/>
<line fill="#000000" stroke="#000000" stroke-width="1" x1="220" x2="215" y1="74" y2="75"/>
<line fill="#000000" stroke="#000000" stroke-width="1" x1="210" x2="205" y1="76" y2="76"/>
<line fill="#000000" stroke="#000000" stroke-width="1" x1="200" x2="198" y1="77" y2="78"/>
<polygon fill="#ffffff" points="1054,254 3277,254 3287,264 3287,309 1054,309 1054,254" stroke="#ffffff" stroke-width="1"/>
<polyline fill="none" points="1054,254 3277,254 3287,264 3287,309 1054,309 1054,254" stroke="#000000" stroke-width="1"/>
<polygon fill="#b2b2b2" points="3277,254 3287,264 3277,264 3277,254" stroke="#b2b2b2" stroke-width="1"/>
<polyline fill="none" points="3277,254 3287,264 3277,264 3277,254" stroke="#000000" stroke-width="1"/>
<text font-family="Lucida Grande" font-size="13" x="1057" y="270">
ID |CREATED_BY |NAME |VALUE |DESCRIPTION                                                                                |IS_ACTIVE |DEFINITION                                                                           |DATE                |CREATED_AT          |UPDATED_AT          |</text>
<text font-family="Lucida Grande" font-size="13" x="1057" y="286">
---|-----------|-----|------|-------------------------------------------------------------------------------------------|----------|-------------------------------------------------------------------------------------|--------------------|--------------------|--------------------|</text>
<text font-family="Lucida Grande" font-size="13" x="1057" y="302">
10 |1          |jim  | .77     |A scalar created using the terminal at 2017-12-29T10:19:00.530-08:00: {key:jim, value:4.7} |true      |{"filter-at":null,"type":"Float/parseFloat","calculation":{"key":"jim","value":4.7}} |2017-12-29 10:19:00 |2017-12-29 10:19:00 |2017-12-29 10:19:00 |</text>
<line fill="#000000" stroke="#000000" stroke-width="1" x1="987" x2="992" y1="310" y2="310"/>
<line fill="#000000" stroke="#000000" stroke-width="1" x1="997" x2="1002" y1="310" y2="310"/>
<line fill="#000000" stroke="#000000" stroke-width="1" x1="1007" x2="1012" y1="310" y2="310"/>
<line fill="#000000" stroke="#000000" stroke-width="1" x1="1017" x2="1022" y1="310" y2="310"/>
<line fill="#000000" stroke="#000000" stroke-width="1" x1="1027" x2="1032" y1="310" y2="310"/>
<line fill="#000000" stroke="#000000" stroke-width="1" x1="1037" x2="1042" y1="310" y2="310"/>
<line fill="#000000" stroke="#000000" stroke-width="1" x1="1047" x2="1052" y1="310" y2="310"/>
</svg>
